<svg width="14" height="14" viewBox="0 0 20 20" fill="none" xmlns="http://www.w3.org/2000/svg">
<path d="M10 6.11111V3H2V17H18V6.11111H10ZM5.2 15.4444H3.6V13.8889H5.2V15.4444ZM5.2 12.3333H3.6V10.7778H5.2V12.3333ZM5.2 9.22222H3.6V7.66667H5.2V9.22222ZM5.2 6.11111H3.6V4.55556H5.2V6.11111ZM8.4 15.4444H6.8V13.8889H8.4V15.4444ZM8.4 12.3333H6.8V10.7778H8.4V12.3333ZM8.4 9.22222H6.8V7.66667H8.4V9.22222ZM8.4 6.11111H6.8V4.55556H8.4V6.11111ZM16.4 15.4444H10V13.8889H11.6V12.3333H10V10.7778H11.6V9.22222H10V7.66667H16.4V15.4444ZM14.8 9.22222H13.2V10.7778H14.8V9.22222ZM14.8 12.3333H13.2V13.8889H14.8V12.3333Z" fill="black"/>
</svg>
