<svg width="15" height="15" viewBox="0 0 16 15" fill="none" xmlns="http://www.w3.org/2000/svg">
<path d="M7.86779 10.4573C9.24237 10.4573 10.3567 9.34302 10.3567 7.96844C10.3567 6.59387 9.24237 5.47955 7.86779 5.47955C6.49322 5.47955 5.37891 6.59387 5.37891 7.96844C5.37891 9.34302 6.49322 10.4573 7.86779 10.4573Z" fill="#FAFAFA"/>
<path d="M5.53429 0.190674L4.11095 1.74623H1.6454C0.789844 1.74623 0.0898438 2.44623 0.0898438 3.30178V12.6351C0.0898438 13.4907 0.789844 14.1907 1.6454 14.1907H14.0898C14.9454 14.1907 15.6454 13.4907 15.6454 12.6351V3.30178C15.6454 2.44623 14.9454 1.74623 14.0898 1.74623H11.6243L10.201 0.190674H5.53429ZM7.86762 11.8573C5.72095 11.8573 3.97873 10.1151 3.97873 7.96845C3.97873 5.82178 5.72095 4.07956 7.86762 4.07956C10.0143 4.07956 11.7565 5.82178 11.7565 7.96845C11.7565 10.1151 10.0143 11.8573 7.86762 11.8573Z" fill="#FAFAFA"/>
</svg>
