<svg width="11" height="16" viewBox="0 0 11 17" fill="none" xmlns="http://www.w3.org/2000/svg">
<path d="M10.2143 5.48772C10.2143 2.88701 8.10071 0.773438 5.5 0.773438C2.89929 0.773438 0.785714 2.88701 0.785714 5.48772C0.785714 9.02344 5.5 14.1306 5.5 14.1306C5.5 14.1306 10.2143 9.02344 10.2143 5.48772ZM3.92857 5.48772C3.92857 4.62344 4.63571 3.91629 5.5 3.91629C6.36429 3.91629 7.07143 4.62344 7.07143 5.48772C7.07143 6.35201 6.37214 7.05915 5.5 7.05915C4.63571 7.05915 3.92857 6.35201 3.92857 5.48772ZM0 14.9163V16.4877H11V14.9163H0Z" fill=""/>
</svg>
