<svg width="16" height="16" viewBox="0 0 25 25" fill="none" xmlns="http://www.w3.org/2000/svg">
<path d="M9.90921 19.812C12.0543 19.812 14.1383 19.0964 15.8307 17.7782L22.2153 24.1629C22.6923 24.6236 23.4524 24.6104 23.913 24.1334C24.3623 23.6682 24.3623 22.9305 23.913 22.4654L17.5281 16.0806C20.799 11.8701 20.0375 5.80523 15.827 2.53435C11.6164 -0.736529 5.5515 0.0251308 2.28055 4.23568C-0.990401 8.44622 -0.228545 14.5111 3.982 17.782C5.67711 19.0988 7.76271 19.8131 9.90921 19.812ZM4.77919 5.02919C7.6125 2.19587 12.2063 2.19581 15.0396 5.02906C17.8729 7.86238 17.8728 12.456 15.0396 15.2893C12.2063 18.1226 7.6125 18.1227 4.77919 15.2895C1.94587 12.4769 1.92906 7.89979 4.74169 5.06647C4.75414 5.05402 4.76666 5.04164 4.77919 5.02919Z" fill=""/>
</svg>
