<?xml version="1.0" encoding="UTF-8" standalone="no"?>
<svg
   width="18"
   height="16"
   viewBox="0 0 20 17"
   fill="none"
   version="1.1"
   id="svg10"
   sodipodi:docname="icon-filter.svg"
   inkscape:version="1.2.2 (732a01da63, 2022-12-09)"
   xmlns:inkscape="http://www.inkscape.org/namespaces/inkscape"
   xmlns:sodipodi="http://sodipodi.sourceforge.net/DTD/sodipodi-0.dtd"
   xmlns="http://www.w3.org/2000/svg"
   xmlns:svg="http://www.w3.org/2000/svg">
  <defs
     id="defs14" />
  <sodipodi:namedview
     id="namedview12"
     pagecolor="#ffffff"
     bordercolor="#000000"
     borderopacity="0.25"
     inkscape:showpageshadow="2"
     inkscape:pageopacity="0.0"
     inkscape:pagecheckerboard="0"
     inkscape:deskcolor="#d1d1d1"
     showgrid="false"
     inkscape:zoom="60.411765"
     inkscape:cx="10.006329"
     inkscape:cy="8.4917235"
     inkscape:window-width="2560"
     inkscape:window-height="1417"
     inkscape:window-x="-8"
     inkscape:window-y="-8"
     inkscape:window-maximized="1"
     inkscape:current-layer="svg10" />
  <path
     style="color:#000000;fill:#000000;stroke-linecap:round;-inkscape-stroke:none"
     d="M 1,4.125 A 0.625,0.625 0 0 0 0.375,4.75 0.625,0.625 0 0 0 1,5.375 H 19 A 0.625,0.625 0 0 0 19.625,4.75 0.625,0.625 0 0 0 19,4.125 Z"
     id="path2" />
  <path
     style="color:#000000;fill:#000000;stroke-linecap:round;-inkscape-stroke:none"
     d="M 1,12.125 A 0.625,0.625 0 0 0 0.375,12.75 0.625,0.625 0 0 0 1,13.375 H 19 A 0.625,0.625 0 0 0 19.625,12.75 0.625,0.625 0 0 0 19,12.125 Z"
     id="path4" />
  <g
     id="circle6">
    <path
       style="color:#000000;fill:#ffffff;stroke-width:1.25;-inkscape-stroke:none"
       d="M 10.375,4.75 A 3.375,3.375 0 0 1 7,8.125 3.375,3.375 0 0 1 3.625,4.75 3.375,3.375 0 0 1 7,1.375 3.375,3.375 0 0 1 10.375,4.75 Z"
       id="path806" />
    <path
       style="color:#000000;fill:#000000;-inkscape-stroke:none"
       d="m 7,0.75 c -2.2017339,0 -4,1.7982661 -4,4 0,2.2017339 1.7982661,4 4,4 2.2017339,0 4,-1.7982661 4,-4 0,-2.2017339 -1.7982661,-4 -4,-4 z M 7,2 C 8.5261844,2 9.75,3.2238156 9.75,4.75 9.75,6.2761844 8.5261844,7.5 7,7.5 5.4738156,7.5 4.25,6.2761844 4.25,4.75 4.25,3.2238156 5.4738156,2 7,2 Z"
       id="path808" />
  </g>
  <g
     id="circle8"
     transform="rotate(-180 13 12.75)">
    <path
       style="color:#000000;fill:#ffffff;stroke-width:1.25;-inkscape-stroke:none"
       d="M 16.375,12.75 A 3.375,3.375 0 0 1 13,16.125 3.375,3.375 0 0 1 9.625,12.75 3.375,3.375 0 0 1 13,9.375 3.375,3.375 0 0 1 16.375,12.75 Z"
       id="path800" />
    <path
       style="color:#000000;fill:#000000;-inkscape-stroke:none"
       d="m 13,8.75 c -2.201734,0 -4,1.798266 -4,4 0,2.201734 1.798266,4 4,4 2.201734,0 4,-1.798266 4,-4 0,-2.201734 -1.798266,-4 -4,-4 z M 13,10 c 1.526184,0 2.75,1.223816 2.75,2.75 0,1.526184 -1.223816,2.75 -2.75,2.75 -1.526184,0 -2.75,-1.223816 -2.75,-2.75 C 10.25,11.223816 11.473816,10 13,10 Z"
       id="path802" />
  </g>
</svg>
