<svg width="55" height="32" viewBox="0 0 55 32" fill="none" xmlns="http://www.w3.org/2000/svg">
<path d="M54.8766 10V31.5762H50V10H54.8766Z" fill="black"/>
<path d="M54.8773 0V4.87679H50V0H54.8773Z" fill="#EC7425"/>
<path d="M32.8766 15V31.6997H28V15H32.8766Z" fill="black"/>
<path d="M33 10H45.1914V14.8766H33V10Z" fill="black"/>
<path d="M18.1218 9.67016V11.1555C16.2418 9.8048 13.9442 9 11.4578 9C5.13973 9 0 14.1404 0 20.4585C0 26.7765 5.13981 31.9165 11.4578 31.9165C13.9442 31.9165 16.2418 31.1118 18.1218 29.7612V31.2464H22.9984V9.67016H18.1218ZM11.4578 27.1219C7.78372 27.1219 4.79452 24.1326 4.79452 20.4585C4.79452 16.7845 7.78372 13.7948 11.4578 13.7948C15.1319 13.7948 18.1218 16.7841 18.1218 20.4585C18.1218 24.133 15.1323 27.1219 11.4578 27.1219Z" fill="black"/>
</svg>
